<svg width="31" height="30" viewBox="0 0 31 30" fill="none" xmlns="http://www.w3.org/2000/svg">
<path d="M6.66575 17.4626C6.48877 19.5001 8.11948 21.2501 10.1926 21.2501H23.6556C25.4759 21.2501 27.0687 19.7751 27.2078 17.9876L27.8904 8.61261C28.0421 6.53761 26.4493 4.8501 24.3382 4.8501H8.01837" stroke="black" stroke-width="1.5" stroke-miterlimit="10" stroke-linecap="round" stroke-linejoin="round"/>
<path d="M3.18939 2.5H5.38898C6.75423 2.5 7.82873 3.6625 7.71496 5L7.0829 12.5625" stroke="black" stroke-width="1.5" stroke-miterlimit="10" stroke-linecap="round" stroke-linejoin="round"/>
<path d="M21.2031 27.5C22.0758 27.5 22.7833 26.8004 22.7833 25.9375C22.7833 25.0746 22.0758 24.375 21.2031 24.375C20.3304 24.375 19.623 25.0746 19.623 25.9375C19.623 26.8004 20.3304 27.5 21.2031 27.5Z" stroke="black" stroke-width="1.5" stroke-miterlimit="10" stroke-linecap="round" stroke-linejoin="round"/>
<path d="M11.0902 27.5C11.9629 27.5 12.6703 26.8004 12.6703 25.9375C12.6703 25.0746 11.9629 24.375 11.0902 24.375C10.2175 24.375 9.51001 25.0746 9.51001 25.9375C9.51001 26.8004 10.2175 27.5 11.0902 27.5Z" stroke="black" stroke-width="1.5" stroke-miterlimit="10" stroke-linecap="round" stroke-linejoin="round"/>
<path d="M12.0383 10H27.2078" stroke="black" stroke-width="1.5" stroke-miterlimit="10" stroke-linecap="round" stroke-linejoin="round"/>
</svg>
