<svg width="52" height="59" viewBox="0 0 52 59" fill="none" xmlns="http://www.w3.org/2000/svg">
<path d="M26 0.440002C16.8256 0.440002 9.35999 7.55563 9.35999 16.3V23.62H4.23999C2.13443 23.62 0.399994 25.2731 0.399994 27.28V55.34C0.399994 57.3469 2.13443 59 4.23999 59H47.76C49.8656 59 51.6 57.3469 51.6 55.34V27.28C51.6 25.2731 49.8656 23.62 47.76 23.62H42.64V16.3C42.64 7.55563 35.1744 0.440002 26 0.440002ZM26 2.88C33.7907 2.88 40.08 8.87449 40.08 16.3V23.62H11.92V16.3C11.92 8.87449 18.2093 2.88 26 2.88ZM4.23999 26.06H47.76C48.4832 26.06 49.04 26.5907 49.04 27.28V55.34C49.04 56.0293 48.4832 56.56 47.76 56.56H4.23999C3.51676 56.56 2.95999 56.0293 2.95999 55.34V27.28C2.95999 26.5907 3.51676 26.06 4.23999 26.06ZM10.64 39.48C9.96104 39.48 9.30989 39.7371 8.8298 40.1947C8.34971 40.6522 8.07999 41.2729 8.07999 41.92C8.07999 42.5671 8.34971 43.1878 8.8298 43.6453C9.30989 44.1029 9.96104 44.36 10.64 44.36C11.3189 44.36 11.9701 44.1029 12.4502 43.6453C12.9303 43.1878 13.2 42.5671 13.2 41.92C13.2 41.2729 12.9303 40.6522 12.4502 40.1947C11.9701 39.7371 11.3189 39.48 10.64 39.48ZM20.88 39.48C20.201 39.48 19.5499 39.7371 19.0698 40.1947C18.5897 40.6522 18.32 41.2729 18.32 41.92C18.32 42.5671 18.5897 43.1878 19.0698 43.6453C19.5499 44.1029 20.201 44.36 20.88 44.36C21.5589 44.36 22.2101 44.1029 22.6902 43.6453C23.1703 43.1878 23.44 42.5671 23.44 41.92C23.44 41.2729 23.1703 40.6522 22.6902 40.1947C22.2101 39.7371 21.5589 39.48 20.88 39.48ZM31.12 39.48C30.441 39.48 29.7899 39.7371 29.3098 40.1947C28.8297 40.6522 28.56 41.2729 28.56 41.92C28.56 42.5671 28.8297 43.1878 29.3098 43.6453C29.7899 44.1029 30.441 44.36 31.12 44.36C31.7989 44.36 32.4501 44.1029 32.9302 43.6453C33.4103 43.1878 33.68 42.5671 33.68 41.92C33.68 41.2729 33.4103 40.6522 32.9302 40.1947C32.4501 39.7371 31.7989 39.48 31.12 39.48ZM41.36 39.48C40.681 39.48 40.0299 39.7371 39.5498 40.1947C39.0697 40.6522 38.8 41.2729 38.8 41.92C38.8 42.5671 39.0697 43.1878 39.5498 43.6453C40.0299 44.1029 40.681 44.36 41.36 44.36C42.0389 44.36 42.6901 44.1029 43.1702 43.6453C43.6503 43.1878 43.92 42.5671 43.92 41.92C43.92 41.2729 43.6503 40.6522 43.1702 40.1947C42.6901 39.7371 42.0389 39.48 41.36 39.48Z" fill="white"/>
</svg>
