<svg id="svg" fill="#000000" stroke="#000000" width="200px" height="200px" version="1.1" viewBox="144 144 512 512" xmlns="http://www.w3.org/2000/svg">
    <g id="IconSvg_bgCarrier" stroke-width="0"></g>
    <g id="IconSvg_tracerCarrier" stroke-linecap="round" stroke-linejoin="round" stroke="#CCCCCC"></g>
     <g id="IconSvg_iconCarrier">
      <g xmlns="http://www.w3.org/2000/svg">
  <path d="m289.79 254.68h1.7344c3.6914 0.019531 6.9023-2.5352 7.7148-6.1406 0-2.0469 1.1016-4.25 1.5742-6.2969 1.2148-4.3477-1.3203-8.8594-5.668-10.074-4.3477-1.2188-8.8594 1.3203-10.078 5.668 0 2.3633-1.2578 4.7227-1.8906 7.2422-0.50781 2.1602-0.078125 4.4375 1.1797 6.2656 1.2617 1.8281 3.2344 3.0391 5.4336 3.3359z"></path>
  <path d="m194.07 520.12h2.3633c3.4531 0.023438 6.5195-2.2148 7.5547-5.5117 0.94531-3.1484 2.0469-6.1406 3.1484-9.1328 26.449-69.742 89.586-103.75 192.87-103.75 67.855 0 117.61 14.328 151.61 43.609 2.7305 2.3086 5.3516 4.7227 7.8711 7.2422 3.0898 3.0898 8.0938 3.0898 11.18 0 3.0859-3.0859 3.0859-8.0898 0-11.176-2.7305-2.832-5.6172-5.5117-8.6602-8.0312-31.488-27.238-74.941-42.508-131.62-46.445 37.805-9.9141 68.344-37.738 81.73-74.457 13.387-36.715 7.9219-77.664-14.625-109.59-22.551-31.922-59.316-50.762-98.398-50.414-39.082 0.34375-75.508 19.828-97.492 52.141-2.3086 3.3594-4.4102 6.8242-6.2969 10.391v0.003906c-2.0859 3.8242-0.67578 8.6172 3.1484 10.703 3.8242 2.0859 8.6211 0.67969 10.707-3.1484 1.7305-3.1484 3.6211-6.1406 5.5117-8.9727h-0.003907c18.484-26.93 48.602-43.543 81.238-44.82 32.637-1.2773 63.957 12.938 84.488 38.336 20.531 25.402 27.859 59.008 19.77 90.648-8.0938 31.645-30.652 57.605-60.855 70.035-30.207 12.426-64.504 9.8594-92.523-6.9297-28.016-16.785-46.461-45.816-49.75-78.312v-6.1406-4.4102 0.003906c0-4.3477-3.5234-7.8711-7.8711-7.8711s-7.8711 3.5234-7.8711 7.8711v5.0391 7.0859-0.003906c2.3672 24.125 12.07 46.945 27.809 65.383 15.734 18.441 36.746 31.613 60.199 37.742-92.418 6.4531-150.67 44.242-176.96 113.04-1.2578 3.3047-2.3633 6.4531-3.4648 9.918-0.64062 2.0039-0.44922 4.1797 0.52734 6.043 0.97656 1.8633 2.6562 3.2617 4.668 3.875z"></path>
  <path d="m184.78 574.91h0.78906c4.0547 0.019532 7.4648-3.0469 7.8711-7.0859 0-5.0391 1.1016-10.078 1.8906-15.742h-0.003906c0.65234-4.3477-2.3438-8.4023-6.6914-9.0547-4.3477-0.64844-8.3984 2.3438-9.0508 6.6914-0.83984 5.2461-1.5234 10.496-2.0469 15.742v0.003906c-0.46094 2.2383 0.074219 4.5664 1.4609 6.3789 1.3906 1.8125 3.5 2.9297 5.7812 3.0664z"></path>
  <path d="m613.96 520.12c-1.1562-4.3047-2.4141-8.5-3.7773-12.594h-0.003906c-1.3906-4.1328-5.8672-6.3516-9.9961-4.9609-4.1289 1.3906-6.3516 5.8672-4.957 10 1.2578 3.7773 2.5195 7.7148 3.6211 11.652v-0.003906c7.043 28.148 10.328 57.109 9.7578 86.121v21.098h-417.21v-21.098c0-4.3477-3.5234-7.8711-7.8711-7.8711-4.3477 0-7.875 3.5234-7.875 7.8711v28.969c0 2.0859 0.83203 4.0898 2.3086 5.5664s3.4766 2.3047 5.5664 2.3047h432.96c2.0859 0 4.0898-0.82813 5.5664-2.3047s2.3047-3.4805 2.3047-5.5664v-28.969c0.54297-30.398-2.9492-60.734-10.391-90.215z"></path>
  <path d="m587.2 492.57c0.80078 2.0352 2.4062 3.6445 4.4414 4.4453 2.0312 0.80078 4.3086 0.72266 6.2812-0.22266 1.9688-0.94141 3.4609-2.6602 4.1172-4.7461 0.65234-2.0859 0.41016-4.3477-0.67188-6.2461-3.3125-6.9688-7.0977-13.703-11.336-20.152-1.0469-1.9531-2.8672-3.375-5.0117-3.9141-2.1484-0.53906-4.4258-0.15234-6.2734 1.0703-1.8438 1.2266-3.0898 3.168-3.4297 5.3594-0.33984 2.1875 0.26172 4.418 1.6484 6.1406 3.8242 5.8477 7.2422 11.953 10.234 18.266z"></path>
 </g>
    </g>
    </svg>